<?xml version="1.0" encoding="utf-8"?>
<!-- Generator: Adobe Illustrator 19.2.1, SVG Export Plug-In . SVG Version: 6.00 Build 0)  -->
<svg version="1.1" id="Capa_1" xmlns="http://www.w3.org/2000/svg" xmlns:xlink="http://www.w3.org/1999/xlink" x="0px" y="0px"
	 viewBox="0 0 113.4 113.4" style="enable-background:new 0 0 113.4 113.4;" xml:space="preserve">
<style type="text/css">
	.st0{fill:#2D2D2D;}
</style>
<path class="st0" d="M56.7,0C25.4,0,0,25.4,0,56.7s25.4,56.7,56.7,56.7s56.7-25.4,56.7-56.7S88,0,56.7,0z M61,90.3
	c-12.8,1.3-24.8-4.9-32.3-19.5l-0.1-0.2l11.1-5.1c3.5,7.7,10.8,12.3,18.6,12.7c11.9-0.1,21.5-9.6,21.6-21.4c0-12-9.6-21.7-21.4-21.8
	c-5.8,0-11.1,2.1-15.1,6l6.8,6.9c0.3,0.2,0.6,0.6,0.6,1c0,0.6-0.5,1.2-1.2,1.2l0,0H27.1l-1.2-23.9c0-0.5,0.3-0.9,0.7-1.1
	c0.4-0.2,0.9-0.1,1.3,0.3l6.9,7c6.3-6.1,14.8-9.6,23.5-9.6h0.1l0,0l0,0l0,0l0,0l0,0l0,0C76.9,23,91.9,38.1,91.9,56.6
	C92,74.5,78.3,88.9,61,90.3z"/>
</svg>
